<svg xmlns="http://www.w3.org/2000/svg" version="1.1" xmlns:xlink="http://www.w3.org/1999/xlink" xmlns:svgjs="http://svgjs.dev/svgjs" width="1920" height="1080" preserveAspectRatio="none" viewBox="0 0 1920 1080"><g mask="url(&quot;#SvgjsMask1123&quot;)" fill="none"><rect width="1920" height="1080" x="0" y="0" fill="rgba(36, 36, 36, 1)"></rect><path d="M0,565.542C105.863,555.128,196.389,500.7,292.546,455.211C403.927,402.52,535.741,377.396,608.269,277.787C686.024,171,723.228,29.25,696.961,-100.208C671.133,-227.499,560.516,-314.176,469.38,-406.72C383.75,-493.673,299.821,-587.926,182.745,-622.372C65.639,-656.827,-57.69,-629.74,-175.102,-596.342C-293.348,-562.706,-432.949,-535.209,-495.578,-429.421C-557.896,-324.158,-479.976,-192.121,-486.721,-69.98C-492.66,37.58,-560.19,139.123,-532.724,243.287C-503.306,354.853,-430.755,456.935,-332.033,516.654C-234.334,575.754,-113.635,576.721,0,565.542" fill="#1f1f1f"></path><path d="M1920 1772.185C2060.089 1773.109 2198.477 1768.507 2327.686 1714.371 2475.2889999999998 1652.529 2657.984 1592.179 2710.471 1440.996 2763.369 1288.628 2643.1620000000003 1133.768 2580.913 984.975 2532.877 870.155 2460.272 775.592 2389.314 673.337 2308.735 557.217 2269.9049999999997 389.553 2136.113 343.98699999999997 2002.505 298.48400000000004 1872.743 418.97 1735.1779999999999 450.55499999999995 1586.01 484.804 1416.275 445.61800000000005 1293.789 537.385 1163.158 635.254 1081.038 794.4870000000001 1060.056 956.359 1039.196 1117.296 1095.58 1279.294 1179.63 1418.115 1257.96 1547.488 1379.319 1643.7649999999999 1515.757 1709.0140000000001 1641.337 1769.071 1780.801 1771.267 1920 1772.185" fill="#292929"></path></g><defs><mask id="SvgjsMask1123"><rect width="1920" height="1080" fill="#ffffff"></rect></mask></defs></svg>